<?xml version="1.0" encoding="utf-8"?>
<!-- Generator: Adobe Illustrator 24.1.2, SVG Export Plug-In . SVG Version: 6.00 Build 0)  -->
<svg version="1.1" id="Camada_1" xmlns="http://www.w3.org/2000/svg" xmlns:xlink="http://www.w3.org/1999/xlink" x="0px" y="0px"
	 viewBox="0 0 86.02 90.95" style="enable-background:new 0 0 86.02 90.95;" xml:space="preserve">
<style type="text/css">
	.st0{fill:#FED43F;}
</style>
<g>
	<path class="st0" d="M2.07,69.19c-0.47,0-0.94-0.16-1.33-0.48c-0.88-0.73-0.99-2.04-0.26-2.92l38.11-45.56
		c0.73-0.88,2.04-1,2.92-0.26c0.88,0.73,0.99,2.04,0.26,2.92L3.66,68.44C3.25,68.93,2.66,69.19,2.07,69.19z"/>
	<path class="st0" d="M40.3,47.73c-0.47,0-0.94-0.16-1.33-0.48c-0.88-0.73-0.99-2.04-0.26-2.92L75.08,0.74
		c0.73-0.88,2.04-1,2.92-0.26c0.88,0.73,0.99,2.04,0.26,2.92L41.89,46.99C41.48,47.48,40.89,47.73,40.3,47.73z"/>
	<path class="st0" d="M4.77,90.11c-0.47,0-0.94-0.16-1.33-0.48c-0.88-0.73-0.99-2.04-0.26-2.92l27.53-32.92
		c0.73-0.88,2.04-0.99,2.92-0.26s0.99,2.04,0.26,2.92L6.36,89.37C5.95,89.86,5.36,90.11,4.77,90.11z"/>
	<path class="st0" d="M24.9,90.95c-0.47,0-0.94-0.16-1.33-0.48c-0.88-0.73-0.99-2.04-0.26-2.92l27.53-32.92
		c0.73-0.88,2.04-1,2.92-0.26c0.88,0.73,0.99,2.04,0.26,2.92L26.49,90.21C26.08,90.7,25.49,90.95,24.9,90.95z"/>
	<path class="st0" d="M47.05,15.42c-0.47,0-0.94-0.16-1.33-0.48c-0.88-0.73-0.99-2.04-0.26-2.92l9.11-10.9
		c0.73-0.88,2.04-1,2.92-0.26c0.88,0.73,0.99,2.04,0.26,2.92l-9.11,10.9C48.23,15.16,47.64,15.42,47.05,15.42z"/>
	<path class="st0" d="M61.21,47.73c-0.47,0-0.94-0.16-1.33-0.48c-0.88-0.73-0.99-2.04-0.26-2.92l10.52-12.79
		c0.73-0.88,2.04-1,2.92-0.26c0.88,0.73,0.99,2.04,0.26,2.92L62.8,46.99C62.39,47.48,61.81,47.73,61.21,47.73z"/>
	<path class="st0" d="M79.81,25.17c-0.47,0-0.94-0.16-1.33-0.48c-0.88-0.73-0.99-2.04-0.26-2.92l4.13-4.82
		c0.73-0.88,2.04-1,2.92-0.26c0.88,0.73,0.99,2.04,0.26,2.92l-4.13,4.82C80.99,24.91,80.41,25.17,79.81,25.17z"/>
</g>
</svg>
