<?xml version="1.0" encoding="utf-8"?>
<!-- Generator: Adobe Illustrator 24.1.2, SVG Export Plug-In . SVG Version: 6.00 Build 0)  -->
<svg version="1.1" id="Camada_1" xmlns="http://www.w3.org/2000/svg" xmlns:xlink="http://www.w3.org/1999/xlink" x="0px" y="0px"
	 viewBox="0 0 112.02 112.01" style="enable-background:new 0 0 112.02 112.01;" xml:space="preserve">
<style type="text/css">
	.st0{fill:#FED43F;}
</style>
<g>
	<path class="st0" d="M95.63,16.4c-9.04-9.04-21-14.75-33.68-16.1c-12.49-1.32-25.2,1.62-35.77,8.28c-1.16,0.73-1.51,2.27-0.78,3.43
		c0.73,1.16,2.27,1.51,3.43,0.78c20.28-12.78,46.3-9.85,63.28,7.12c9.63,9.63,14.93,22.45,14.93,36.1c0,13.65-5.3,26.47-14.93,36.1
		s-22.45,14.93-36.1,14.93s-26.47-5.3-36.1-14.93C3.18,75.37,0.21,48.72,12.85,28.74c0.73-1.16,0.39-2.7-0.77-3.43
		c-0.41-0.26-0.87-0.38-1.33-0.38c-0.82,0-1.63,0.41-2.11,1.16C1.95,36.66-1.01,49.38,0.3,61.9c1.33,12.71,7.05,24.69,16.1,33.73
		c10.56,10.57,24.63,16.38,39.61,16.38c14.98,0,29.05-5.82,39.61-16.38C117.48,73.79,117.48,38.25,95.63,16.4z"/>
	<path class="st0" d="M94.47,58.55h3.65c1.37,0,2.49-1.12,2.49-2.49s-1.12-2.49-2.49-2.49h-3.65c-1.37,0-2.49,1.12-2.49,2.49
		S93.1,58.55,94.47,58.55z"/>
	<path class="st0" d="M17.57,53.48h-3.65c-1.37,0-2.49,1.12-2.49,2.49c0,1.37,1.12,2.49,2.49,2.49h3.65c1.37,0,2.49-1.12,2.49-2.49
		C20.06,54.6,18.94,53.48,17.57,53.48z"/>
	<path class="st0" d="M58.55,17.57v-3.65c0-1.37-1.12-2.49-2.49-2.49c-1.37,0-2.49,1.12-2.49,2.49v3.65c0,1.37,1.12,2.49,2.49,2.49
		C57.44,20.05,58.55,18.94,58.55,17.57z"/>
	<path class="st0" d="M53.48,94.47v3.65c0,1.37,1.12,2.49,2.49,2.49s2.49-1.12,2.49-2.49v-3.65c0-1.37-1.12-2.49-2.49-2.49
		S53.48,93.1,53.48,94.47z"/>
	<path class="st0" d="M40.86,37.34c-0.48-0.49-1.12-0.73-1.76-0.73c-0.64,0-1.27,0.24-1.76,0.73c-0.97,0.97-0.97,2.55,0,3.52
		l10.27,10.27l-0.16,0.31c-0.75,1.4-1.15,2.98-1.15,4.58c0,5.36,4.36,9.72,9.72,9.72s9.72-4.36,9.72-9.72c0-1.59-0.4-3.18-1.15-4.58
		l-0.16-0.31L84.9,30.66c0.47-0.47,0.73-1.09,0.73-1.76c0-0.66-0.26-1.29-0.73-1.76c-0.94-0.94-2.58-0.94-3.52,0L60.91,47.61
		l-0.31-0.17c-2.8-1.5-6.36-1.5-9.16,0l-0.31,0.17L40.86,37.34z M56.02,51.27c2.62,0,4.74,2.13,4.74,4.74s-2.13,4.74-4.74,4.74
		s-4.74-2.13-4.74-4.74S53.4,51.27,56.02,51.27z"/>
	<path class="st0" d="M19.92,19.92L19.92,19.92c0.47-0.46,0.73-1.1,0.73-1.76c0-0.65-0.27-1.29-0.73-1.76
		c-0.46-0.46-1.1-0.73-1.76-0.73c-0.65,0-1.29,0.27-1.76,0.73c-0.46,0.46-0.73,1.1-0.73,1.76s0.27,1.3,0.73,1.76
		C17.33,20.84,18.99,20.84,19.92,19.92z"/>
</g>
</svg>
