<?xml version="1.0" encoding="utf-8"?>
<!-- Generator: Adobe Illustrator 24.1.2, SVG Export Plug-In . SVG Version: 6.00 Build 0)  -->
<svg version="1.1" id="Camada_1" xmlns="http://www.w3.org/2000/svg" xmlns:xlink="http://www.w3.org/1999/xlink" x="0px" y="0px"
	 viewBox="0 0 122.32 109.57" style="enable-background:new 0 0 122.32 109.57;" xml:space="preserve">
<style type="text/css">
	.st0{fill:#FED43F;}
</style>
<g>
	<path class="st0" d="M120.52,54.39c-0.99,0-1.8,0.8-1.8,1.8v41.2c0,4.62-3.76,8.38-8.38,8.38H97.81h-3.59v0h-4.1v0h-3.59H36.04
		h-3.59v0h-4.1v0h-3.59H11.98c-4.62,0-8.38-3.76-8.38-8.38V28.77c0-4.62,3.76-8.38,8.38-8.38h5.74h7.04h3.59h4.1h57.67h4.1h3.59
		h12.54c4.62,0,8.38,3.76,8.38,8.38v17.25c0,0.99,0.8,1.8,1.8,1.8c0.99,0,1.8-0.8,1.8-1.8V28.77c0-6.6-5.37-11.98-11.98-11.98h-3.7
		h-3.59h-5.06h-3.59h-9.15H81.7V9.65C81.7,4.33,77.37,0,72.05,0h-7.19c-0.99,0-1.8,0.8-1.8,1.8c0,0.99,0.8,1.8,1.8,1.8h7.19
		c3.34,0,6.05,2.72,6.05,6.05v7.15h-3.59V9.65c0-1.36-1.1-2.46-2.46-2.46H50.27c-1.36,0-2.46,1.1-2.46,2.46v7.15h-3.59V9.65
		c0-3.34,2.72-6.05,6.05-6.05h6.95c0.99,0,1.8-0.8,1.8-1.8c0-0.99-0.8-1.8-1.8-1.8h-6.95c-5.32,0-9.65,4.33-9.65,9.65v7.15h-3.31
		h-9.15h-3.59h-5.06h-3.59h-3.94C5.37,16.8,0,22.17,0,28.77v68.62c0,6.6,5.37,11.98,11.98,11.98h98.37c6.6,0,11.98-5.37,11.98-11.98
		v-41.2C122.32,55.2,121.51,54.39,120.52,54.39z M70.92,10.78v6.02h-3.31H54.94H51.4v-6.02H70.92z"/>
	<path class="st0" d="M50.59,57.34l-4.51,1.61l-7.69,2.74l-3.59,1.28l-10.55,3.75c-0.9,0.32-1.63,0.98-2.04,1.85
		c-0.41,0.87-0.46,1.84-0.14,2.75l3.63,10.19c0.32,0.91,0.98,1.63,1.84,2.04c0.49,0.23,1.01,0.35,1.54,0.35
		c0.41,0,0.81-0.07,1.21-0.21l4.51-1.61l3.59-1.28l7.69-2.74l10.55-3.75c1.87-0.66,2.85-2.73,2.18-4.59l-3.62-10.19
		C54.52,57.65,52.46,56.67,50.59,57.34z M46.08,74.24l-7.69,2.74l-3.59,1.28l-5.72,2.03L25.45,70.1l9.34-3.33l3.59-1.28l7.69-2.74
		l5.72-2.03l3.62,10.19L46.08,74.24z"/>
	<path class="st0" d="M85.9,40.18c0.12-0.97-0.32-1.91-1.14-2.45L71.8,29.26c-0.65-0.42-1.44-0.53-2.18-0.29
		c-0.74,0.24-1.32,0.78-1.6,1.51l-5.91,15.12c-0.37,0.94-0.16,1.98,0.54,2.71c0.49,0.51,1.15,0.78,1.83,0.78
		c0.29,0,0.58-0.05,0.86-0.15l18.87-6.65C85.14,41.96,85.79,41.15,85.9,40.18z M66.29,44.8l4.62-11.83l10.14,6.62L66.29,44.8z"/>
	<path class="st0" d="M80.91,97.99c5.87,0,10.65-4.78,10.65-10.65c0-5.87-4.78-10.65-10.65-10.65c-5.87,0-10.65,4.78-10.65,10.65
		C70.26,93.21,75.04,97.99,80.91,97.99z M80.91,80.27c3.89,0,7.06,3.17,7.06,7.06s-3.17,7.06-7.06,7.06c-3.89,0-7.06-3.17-7.06-7.06
		S77.02,80.27,80.91,80.27z"/>
</g>
</svg>
