<?xml version="1.0" encoding="utf-8"?>
<!-- Generator: Adobe Illustrator 24.1.2, SVG Export Plug-In . SVG Version: 6.00 Build 0)  -->
<svg version="1.1" id="Camada_1" xmlns="http://www.w3.org/2000/svg" xmlns:xlink="http://www.w3.org/1999/xlink" x="0px" y="0px"
	 viewBox="0 0 128.64 103.9" style="enable-background:new 0 0 128.64 103.9;" xml:space="preserve">
<style type="text/css">
	.st0{fill:#FED43F;}
</style>
<g>
	<path class="st0" d="M83.34,63.36c-1.44-0.81-2.54-1.94-3.35-3.44c-0.49-0.91-1.44-1.47-2.47-1.46c-1.02,0.01-1.95,0.58-2.43,1.49
		c-0.72,1.38-1.82,2.46-3.37,3.31c-0.93,0.51-1.48,1.48-1.44,2.55c0.05,1.06,0.67,1.98,1.64,2.4c1.45,0.64,2.48,1.65,3.15,3.1
		c0.44,0.95,1.37,1.56,2.41,1.58c0.02,0,0.05,0,0.07,0c1.04,0,1.98-0.57,2.47-1.5c0.75-1.44,1.79-2.46,3.18-3.13
		c0.93-0.45,1.53-1.36,1.56-2.39C84.8,64.84,84.25,63.88,83.34,63.36L83.34,63.36z M77.59,69.48c-0.9-1.67-2.2-2.95-3.88-3.81
		c1.65-1,2.95-2.28,3.85-3.82c0.97,1.62,2.25,2.93,3.82,3.91C79.8,66.63,78.53,67.88,77.59,69.48z"/>
	<path class="st0" d="M34.05,4.9c-1.44-0.81-2.54-1.94-3.35-3.44C30.21,0.55,29.26-0.01,28.23,0c-1.02,0.01-1.95,0.58-2.43,1.49
		c-0.72,1.38-1.82,2.46-3.37,3.31C21.5,5.31,20.95,6.29,21,7.35c0.05,1.06,0.67,1.98,1.64,2.4c1.45,0.64,2.48,1.65,3.15,3.1
		c0.44,0.95,1.37,1.56,2.41,1.58c0.02,0,0.05,0,0.07,0c1.04,0,1.98-0.57,2.47-1.5c0.75-1.44,1.79-2.46,3.18-3.13
		c0.93-0.45,1.53-1.36,1.56-2.39C35.5,6.38,34.96,5.41,34.05,4.9L34.05,4.9z M28.29,11.01c-0.9-1.67-2.2-2.95-3.88-3.81
		c1.65-1,2.95-2.28,3.85-3.82C29.23,5,30.51,6.32,32.08,7.3C30.51,8.16,29.24,9.41,28.29,11.01z"/>
	<g>
		<path class="st0" d="M64.86,77.87c-1.67-1.57-3.84-2.43-6.13-2.43c-0.1,0-0.19,0-0.29,0c-2.39,0.07-4.61,1.07-6.25,2.82
			c-1.64,1.74-2.5,4.02-2.42,6.41c0.07,2.39,1.07,4.62,2.82,6.25c1.74,1.64,4.03,2.48,6.41,2.42c2.39-0.07,4.62-1.07,6.25-2.82
			c1.64-1.74,2.5-4.02,2.42-6.41C67.61,81.73,66.61,79.51,64.86,77.87z M62.37,87.83c-0.91,0.97-2.15,1.53-3.49,1.57
			c-0.05,0-0.11,0-0.16,0c-1.28,0-2.49-0.48-3.42-1.35c-2.01-1.89-2.11-5.06-0.22-7.07c1.89-2.01,5.06-2.11,7.07-0.22
			C64.17,82.64,64.26,85.82,62.37,87.83z"/>
		<path class="st0" d="M35.71,57.36c-1.95,0-3.9,0.77-5.34,2.3c-1.34,1.42-2.04,3.28-1.98,5.24c0.06,1.96,0.88,3.77,2.3,5.11
			c1.42,1.34,3.3,2.05,5.24,1.98c1.96-0.06,3.77-0.88,5.11-2.3c2.76-2.94,2.62-7.59-0.32-10.35C39.31,58.02,37.51,57.36,35.71,57.36
			z M38.16,66.98c-0.61,0.65-1.45,1.03-2.35,1.06c-0.04,0-0.07,0-0.11,0c-0.86,0-1.67-0.32-2.3-0.91c-0.65-0.61-1.03-1.45-1.06-2.35
			c-0.03-0.9,0.29-1.76,0.91-2.41c0.61-0.65,1.45-1.03,2.35-1.06c0.91-0.04,1.76,0.3,2.41,0.91C39.37,63.5,39.43,65.63,38.16,66.98z
			"/>
		<path class="st0" d="M64.03,22.85c-0.09-2.83-1.27-5.46-3.33-7.4c-2.04-1.92-4.65-2.87-7.26-2.87c-2.83,0-5.65,1.12-7.73,3.34
			c-1.94,2.06-2.95,4.76-2.87,7.59c0.09,2.83,1.27,5.46,3.33,7.4c2.06,1.94,4.75,2.97,7.59,2.87c2.83-0.09,5.46-1.27,7.4-3.33
			C63.1,28.38,64.12,25.68,64.03,22.85z M58.28,27.73c-1.31,1.39-3.08,2.09-4.85,2.09c-1.63,0-3.27-0.6-4.55-1.8
			c-1.29-1.21-2.03-2.86-2.09-4.64c-0.06-1.78,0.58-3.47,1.8-4.76c2.51-2.67,6.73-2.8,9.4-0.29C60.66,20.84,60.79,25.06,58.28,27.73
			z"/>
	</g>
	<g>
		<polygon class="st0" points="123.93,42.87 123.93,42.87 123.91,42.95 123.93,42.87 		"/>
		<path class="st0" d="M127.39,47.03l0.04,0.01l0.71-3.25c0.01-0.06,0.01-0.13,0.02-0.19c-0.02,0.06-0.05,0.12-0.06,0.18
			L127.39,47.03z"/>
		<path class="st0" d="M126.5,41.22c-1.16-0.26-2.31,0.48-2.57,1.64c0,0,0,0,0,0l-0.02,0.08l-0.93,4.22
			c-4.36-1.44-5.98-3.18-12.64-3.18c-0.55,0-1.07,0.02-1.56,0.04c-3.49,0.25-5.38,0.92-5.38,0.92c-1.18,0.37-2.19,0.8-3.13,1.21
			c-2.26,0.98-4.21,1.82-8.39,1.82c-0.65,0-1.23-0.02-1.78-0.06c-2.35-0.05-4.97-1.08-4.97-1.08c-0.55-0.21-1.08-0.44-1.64-0.68
			c-1.68-0.73-3.53-1.52-6.29-1.92c-2.53-0.52-5.87-0.18-5.87-0.18c-3.75,0.27-5.99,1.23-8,2.1c-1.86,0.8-3.52,1.52-6.37,1.74
			c-3.55,0.65-5.81-0.23-5.81-0.23c-1.29-0.23-2.28-0.57-3.17-0.92c-1.1-0.43-2.34,0.1-2.77,1.2c-0.43,1.1,0.1,2.34,1.2,2.77
			c0.39,0.15,0.8,0.31,1.24,0.45c2.66,0.97,5.05,0.99,5.05,0.99c0.69,0.05,1.44,0.08,2.26,0.08c4.43,0,7-0.86,9.29-1.83l1.28-0.55
			c3.66-1.83,7.65-1.61,7.65-1.61c4.11-0.05,6.41,0.85,8.68,1.84c1.6,0.66,4.77,1.63,4.77,1.63c1.43,0.31,3.13,0.51,5.24,0.51
			c1.92,0,3.5-0.17,4.84-0.43c7.68-3.06,9.13-3.12,9.13-3.12c1.21-0.27,2.63-0.44,4.5-0.44c6.05,0,7.16,1.71,11.71,3.09l-5.17,23.47
			c-0.25,1.15,0.47,2.29,1.63,2.55c1.15,0.26,2.29-0.47,2.55-1.63l5.62-25.53c0-0.02,0.01-0.04,0.01-0.06c0,0,0-0.01,0-0.01
			l0.69-3.12l0.71-3.24c0.01-0.06,0.04-0.12,0.06-0.18C128.31,42.51,127.6,41.47,126.5,41.22z"/>
		<path class="st0" d="M117.5,81.97c-1.15-0.25-2.29,0.47-2.55,1.63l-3.09,14.05c-0.25,1.12-1.22,1.9-2.35,1.9H18.88
			c-1.14,0-2.11-0.78-2.35-1.9l-6.51-29.53L5.86,49.23c0.73,0.26,1.41,0.55,2.11,0.85c2.35,1.02,5.02,2.17,10.08,2.17
			c5.06,0,7.72-1.15,10.08-2.17c0.94-0.41,1.83-0.79,2.86-1.1c1.13-0.34,1.77-1.53,1.43-2.66c-0.34-1.13-1.53-1.77-2.66-1.43
			c-1.26,0.38-2.31,0.83-3.32,1.27c-2.26,0.98-4.21,1.82-8.38,1.82c-4.17,0-6.12-0.84-8.38-1.82c-1.35-0.58-2.85-1.23-4.85-1.66
			l-0.34-1.55l-0.02-0.08c0,0,0,0,0,0c-0.26-1.16-1.4-1.9-2.57-1.64c-1.1,0.24-1.8,1.28-1.67,2.38c0,0,0,0,0,0
			c0.02,0.06,0.05,0.12,0.06,0.18L1,47.03l0.69,3.12c0,0,0,0.01,0,0.01c0,0.02,0.01,0.04,0.01,0.06l5.62,25.53c0,0,0,0,0,0
			l5.03,22.82c0.68,3.1,3.37,5.26,6.53,5.26h90.62c3.16,0,5.85-2.16,6.53-5.26l3.09-14.05C119.38,83.37,118.66,82.22,117.5,81.97z"
			/>
	</g>
</g>
</svg>
